<svg width="51" height="50" viewBox="0 0 51 50" fill="none" xmlns="http://www.w3.org/2000/svg">
<mask id="path-1-inside-1_231_114" fill="white">
<path d="M37.5098 25C39.235 25 40.8545 25.3255 42.3682 25.9766C43.8818 26.6276 45.2083 27.5146 46.3477 28.6377C47.487 29.7607 48.3822 31.0872 49.0332 32.6172C49.6842 34.1471 50.0098 35.7747 50.0098 37.5C50.0098 39.2253 49.6842 40.8447 49.0332 42.3584C48.3822 43.8721 47.4951 45.1986 46.3721 46.3379C45.249 47.4772 43.9225 48.3724 42.3926 49.0234C40.8626 49.6745 39.235 50 37.5098 50C35.7845 50 34.165 49.6745 32.6514 49.0234C31.1377 48.3724 29.8112 47.4854 28.6719 46.3623C27.5326 45.2393 26.6374 43.9128 25.9863 42.3828C25.3353 40.8529 25.0098 39.2253 25.0098 37.5C25.0098 35.7747 25.3353 34.1553 25.9863 32.6416C26.6374 31.1279 27.5244 29.8014 28.6475 28.6621C29.7705 27.5228 31.097 26.6276 32.627 25.9766C34.1569 25.3255 35.7845 25 37.5098 25ZM37.5098 46.875C38.7956 46.875 40.0081 46.6309 41.1475 46.1426C42.2868 45.6543 43.2796 44.987 44.126 44.1406C44.9723 43.2943 45.6478 42.3014 46.1523 41.1621C46.6569 40.0228 46.901 38.8021 46.8848 37.5C46.8848 36.2142 46.6406 35.0016 46.1523 33.8623C45.6641 32.723 44.9967 31.7301 44.1504 30.8838C43.304 30.0374 42.3031 29.362 41.1475 28.8574C39.9919 28.3529 38.7793 28.1087 37.5098 28.125C36.2077 28.125 34.9951 28.3691 33.8721 28.8574C32.749 29.3457 31.7562 30.013 30.8936 30.8594C30.0309 31.7057 29.3555 32.7067 28.8672 33.8623C28.3789 35.0179 28.1348 36.2305 28.1348 37.5C28.1348 38.8021 28.3789 40.0146 28.8672 41.1377C29.3555 42.2607 30.0228 43.2536 30.8691 44.1162C31.7155 44.9788 32.7083 45.6543 33.8477 46.1426C34.987 46.6309 36.2077 46.875 37.5098 46.875ZM37.5098 37.5H42.1973V40.625H34.3848V31.25H37.5098V37.5ZM28.5742 24.707C28.1185 25.0326 27.6872 25.3743 27.2803 25.7324C26.8734 26.0905 26.4827 26.473 26.1084 26.8799C24.9854 26.2777 23.8053 25.8138 22.5684 25.4883C21.3314 25.1628 20.0618 25 18.7598 25C17.3275 25 15.944 25.1872 14.6094 25.5615C13.2747 25.9359 12.0296 26.4567 10.874 27.124C9.71842 27.7913 8.66862 28.6051 7.72461 29.5654C6.7806 30.5257 5.9668 31.5837 5.2832 32.7393C4.59961 33.8949 4.07064 35.14 3.69629 36.4746C3.32194 37.8092 3.13477 39.1927 3.13477 40.625H0.00976562C0.00976562 38.6719 0.294596 36.792 0.864258 34.9854C1.43392 33.1787 2.25586 31.5104 3.33008 29.9805C4.4043 28.4505 5.67383 27.0915 7.13867 25.9033C8.60352 24.7152 10.2637 23.7793 12.1191 23.0957C10.2799 21.8913 8.84766 20.3776 7.82227 18.5547C6.79688 16.7318 6.27604 14.7135 6.25977 12.5C6.25977 10.7747 6.58529 9.15527 7.23633 7.6416C7.88737 6.12793 8.77441 4.80143 9.89746 3.66211C11.0205 2.52279 12.347 1.6276 13.877 0.976562C15.4069 0.325521 17.0345 0 18.7598 0C20.485 0 22.1045 0.325521 23.6182 0.976562C25.1318 1.6276 26.4583 2.51465 27.5977 3.6377C28.737 4.76074 29.6322 6.08724 30.2832 7.61719C30.9342 9.14714 31.2598 10.7747 31.2598 12.5C31.2598 13.5742 31.1296 14.624 30.8691 15.6494C30.6087 16.6748 30.2181 17.6432 29.6973 18.5547C29.1764 19.4661 28.5579 20.3125 27.8418 21.0938C27.1257 21.875 26.3037 22.5423 25.376 23.0957C26.5153 23.5514 27.5814 24.0885 28.5742 24.707ZM9.38477 12.5C9.38477 13.8021 9.62891 15.0146 10.1172 16.1377C10.6055 17.2607 11.2728 18.2536 12.1191 19.1162C12.9655 19.9788 13.9583 20.6543 15.0977 21.1426C16.237 21.6309 17.4577 21.875 18.7598 21.875C20.0456 21.875 21.2581 21.6309 22.3975 21.1426C23.5368 20.6543 24.5296 19.987 25.376 19.1406C26.2223 18.2943 26.8978 17.3014 27.4023 16.1621C27.9069 15.0228 28.151 13.8021 28.1348 12.5C28.1348 11.2142 27.8906 10.0016 27.4023 8.8623C26.9141 7.72298 26.2467 6.73014 25.4004 5.88379C24.554 5.03744 23.5531 4.36198 22.3975 3.85742C21.2419 3.35286 20.0293 3.10872 18.7598 3.125C17.4577 3.125 16.2451 3.36914 15.1221 3.85742C13.999 4.3457 13.0062 5.01302 12.1436 5.85938C11.2809 6.70573 10.6055 7.70671 10.1172 8.8623C9.62891 10.0179 9.38477 11.2305 9.38477 12.5Z"/>
</mask>
<path d="M37.5098 25C39.235 25 40.8545 25.3255 42.3682 25.9766C43.8818 26.6276 45.2083 27.5146 46.3477 28.6377C47.487 29.7607 48.3822 31.0872 49.0332 32.6172C49.6842 34.1471 50.0098 35.7747 50.0098 37.5C50.0098 39.2253 49.6842 40.8447 49.0332 42.3584C48.3822 43.8721 47.4951 45.1986 46.3721 46.3379C45.249 47.4772 43.9225 48.3724 42.3926 49.0234C40.8626 49.6745 39.235 50 37.5098 50C35.7845 50 34.165 49.6745 32.6514 49.0234C31.1377 48.3724 29.8112 47.4854 28.6719 46.3623C27.5326 45.2393 26.6374 43.9128 25.9863 42.3828C25.3353 40.8529 25.0098 39.2253 25.0098 37.5C25.0098 35.7747 25.3353 34.1553 25.9863 32.6416C26.6374 31.1279 27.5244 29.8014 28.6475 28.6621C29.7705 27.5228 31.097 26.6276 32.627 25.9766C34.1569 25.3255 35.7845 25 37.5098 25ZM37.5098 46.875C38.7956 46.875 40.0081 46.6309 41.1475 46.1426C42.2868 45.6543 43.2796 44.987 44.126 44.1406C44.9723 43.2943 45.6478 42.3014 46.1523 41.1621C46.6569 40.0228 46.901 38.8021 46.8848 37.5C46.8848 36.2142 46.6406 35.0016 46.1523 33.8623C45.6641 32.723 44.9967 31.7301 44.1504 30.8838C43.304 30.0374 42.3031 29.362 41.1475 28.8574C39.9919 28.3529 38.7793 28.1087 37.5098 28.125C36.2077 28.125 34.9951 28.3691 33.8721 28.8574C32.749 29.3457 31.7562 30.013 30.8936 30.8594C30.0309 31.7057 29.3555 32.7067 28.8672 33.8623C28.3789 35.0179 28.1348 36.2305 28.1348 37.5C28.1348 38.8021 28.3789 40.0146 28.8672 41.1377C29.3555 42.2607 30.0228 43.2536 30.8691 44.1162C31.7155 44.9788 32.7083 45.6543 33.8477 46.1426C34.987 46.6309 36.2077 46.875 37.5098 46.875ZM37.5098 37.5H42.1973V40.625H34.3848V31.25H37.5098V37.5ZM28.5742 24.707C28.1185 25.0326 27.6872 25.3743 27.2803 25.7324C26.8734 26.0905 26.4827 26.473 26.1084 26.8799C24.9854 26.2777 23.8053 25.8138 22.5684 25.4883C21.3314 25.1628 20.0618 25 18.7598 25C17.3275 25 15.944 25.1872 14.6094 25.5615C13.2747 25.9359 12.0296 26.4567 10.874 27.124C9.71842 27.7913 8.66862 28.6051 7.72461 29.5654C6.7806 30.5257 5.9668 31.5837 5.2832 32.7393C4.59961 33.8949 4.07064 35.14 3.69629 36.4746C3.32194 37.8092 3.13477 39.1927 3.13477 40.625H0.00976562C0.00976562 38.6719 0.294596 36.792 0.864258 34.9854C1.43392 33.1787 2.25586 31.5104 3.33008 29.9805C4.4043 28.4505 5.67383 27.0915 7.13867 25.9033C8.60352 24.7152 10.2637 23.7793 12.1191 23.0957C10.2799 21.8913 8.84766 20.3776 7.82227 18.5547C6.79688 16.7318 6.27604 14.7135 6.25977 12.5C6.25977 10.7747 6.58529 9.15527 7.23633 7.6416C7.88737 6.12793 8.77441 4.80143 9.89746 3.66211C11.0205 2.52279 12.347 1.6276 13.877 0.976562C15.4069 0.325521 17.0345 0 18.7598 0C20.485 0 22.1045 0.325521 23.6182 0.976562C25.1318 1.6276 26.4583 2.51465 27.5977 3.6377C28.737 4.76074 29.6322 6.08724 30.2832 7.61719C30.9342 9.14714 31.2598 10.7747 31.2598 12.5C31.2598 13.5742 31.1296 14.624 30.8691 15.6494C30.6087 16.6748 30.2181 17.6432 29.6973 18.5547C29.1764 19.4661 28.5579 20.3125 27.8418 21.0938C27.1257 21.875 26.3037 22.5423 25.376 23.0957C26.5153 23.5514 27.5814 24.0885 28.5742 24.707ZM9.38477 12.5C9.38477 13.8021 9.62891 15.0146 10.1172 16.1377C10.6055 17.2607 11.2728 18.2536 12.1191 19.1162C12.9655 19.9788 13.9583 20.6543 15.0977 21.1426C16.237 21.6309 17.4577 21.875 18.7598 21.875C20.0456 21.875 21.2581 21.6309 22.3975 21.1426C23.5368 20.6543 24.5296 19.987 25.376 19.1406C26.2223 18.2943 26.8978 17.3014 27.4023 16.1621C27.9069 15.0228 28.151 13.8021 28.1348 12.5C28.1348 11.2142 27.8906 10.0016 27.4023 8.8623C26.9141 7.72298 26.2467 6.73014 25.4004 5.88379C24.554 5.03744 23.5531 4.36198 22.3975 3.85742C21.2419 3.35286 20.0293 3.10872 18.7598 3.125C17.4577 3.125 16.2451 3.36914 15.1221 3.85742C13.999 4.3457 13.0062 5.01302 12.1436 5.85938C11.2809 6.70573 10.6055 7.70671 10.1172 8.8623C9.62891 10.0179 9.38477 11.2305 9.38477 12.5Z" fill="#F7941D"/>
<path d="M46.8848 37.5H41.8848V37.5312L41.8852 37.5625L46.8848 37.5ZM37.5098 28.125V33.125H37.5418L37.5739 33.1246L37.5098 28.125ZM37.5098 37.5H32.5098V42.5H37.5098V37.5ZM42.1973 37.5H47.1973V32.5H42.1973V37.5ZM42.1973 40.625V45.625H47.1973V40.625H42.1973ZM34.3848 40.625H29.3848V45.625H34.3848V40.625ZM34.3848 31.25V26.25H29.3848V31.25H34.3848ZM37.5098 31.25H42.5098V26.25H37.5098V31.25ZM28.5742 24.707L31.4804 28.7757L37.5744 24.4229L31.218 20.4631L28.5742 24.707ZM26.1084 26.8799L23.7455 31.2863L27.1627 33.1188L29.7881 30.2652L26.1084 26.8799ZM3.13477 40.625V45.625H8.13477V40.625H3.13477ZM0.00976562 40.625H-4.99023V45.625H0.00976562V40.625ZM12.1191 23.0957L13.8477 27.7874L23.1671 24.3539L14.8584 18.9128L12.1191 23.0957ZM6.25977 12.5H1.25977V12.5184L1.2599 12.5368L6.25977 12.5ZM25.376 23.0957L22.8146 18.8016L14.1294 23.9822L23.519 27.7381L25.376 23.0957ZM28.1348 12.5H23.1348V12.5312L23.1352 12.5625L28.1348 12.5ZM18.7598 3.125V8.125H18.7918L18.8239 8.12459L18.7598 3.125ZM37.5098 30C38.5883 30 39.5322 30.1997 40.3926 30.5697L44.3437 21.3834C42.1768 20.4514 39.8818 20 37.5098 20V30ZM40.3926 30.5697C41.3525 30.9826 42.1545 31.5252 42.8377 32.1986L49.8577 25.0768C48.2622 23.5041 46.4112 22.2726 44.3437 21.3834L40.3926 30.5697ZM42.8377 32.1986C43.494 32.8455 44.0266 33.6214 44.4324 34.575L53.634 30.6594C52.7377 28.5531 51.48 26.6759 49.8577 25.0768L42.8377 32.1986ZM44.4324 34.575C44.8101 35.4625 45.0098 36.4217 45.0098 37.5H55.0098C55.0098 35.1278 54.5584 32.8318 53.634 30.6594L44.4324 34.575ZM45.0098 37.5C45.0098 38.5785 44.8101 39.5225 44.44 40.3828L53.6264 44.334C54.5584 42.167 55.0098 39.872 55.0098 37.5H45.0098ZM44.44 40.3828C44.0272 41.3427 43.4846 42.1447 42.8112 42.8279L49.9329 49.8479C51.5056 48.2524 52.7371 46.4014 53.6264 44.334L44.44 40.3828ZM42.8112 42.8279C42.1642 43.4842 41.3884 44.0169 40.4348 44.4227L44.3504 53.6242C46.4567 52.7279 48.3338 51.4702 49.9329 49.8479L42.8112 42.8279ZM40.4348 44.4227C39.5473 44.8003 38.5881 45 37.5098 45V55C39.882 55 42.178 54.5486 44.3504 53.6242L40.4348 44.4227ZM37.5098 45C36.4312 45 35.4873 44.8003 34.6269 44.4303L30.6758 53.6166C32.8428 54.5486 35.1378 55 37.5098 55V45ZM34.6269 44.4303C33.667 44.0174 32.865 43.4748 32.1819 42.8014L25.1619 49.9232C26.7574 51.4959 28.6084 52.7274 30.6758 53.6166L34.6269 44.4303ZM32.1819 42.8014C31.5255 42.1545 30.9929 41.3786 30.5871 40.425L21.3856 44.3406C22.2819 46.4469 23.5396 48.3241 25.1619 49.9232L32.1819 42.8014ZM30.5871 40.425C30.2094 39.5375 30.0098 38.5783 30.0098 37.5H20.0098C20.0098 39.8722 20.4611 42.1682 21.3856 44.3406L30.5871 40.425ZM30.0098 37.5C30.0098 36.4215 30.2094 35.4775 30.5795 34.6172L21.3932 30.666C20.4611 32.833 20.0098 35.128 20.0098 37.5H30.0098ZM30.5795 34.6172C30.9924 33.6573 31.5349 32.8553 32.2083 32.1721L25.0866 25.1521C23.5139 26.7476 22.2824 28.5986 21.3932 30.666L30.5795 34.6172ZM32.2083 32.1721C32.8553 31.5158 33.6311 30.9831 34.5847 30.5773L30.6692 21.3758C28.5629 22.2721 26.6857 23.5298 25.0866 25.1521L32.2083 32.1721ZM34.5847 30.5773C35.4722 30.1997 36.4315 30 37.5098 30V20C35.1376 20 32.8416 20.4514 30.6692 21.3758L34.5847 30.5773ZM37.5098 51.875C39.4469 51.875 41.332 51.5033 43.1171 50.7383L39.1779 41.5469C38.6842 41.7584 38.1443 41.875 37.5098 41.875V51.875ZM43.1171 50.7383C44.8198 50.0085 46.3493 48.9883 47.6615 47.6762L40.5904 40.6051C40.2099 40.9856 39.7537 41.3001 39.1779 41.5469L43.1171 50.7383ZM47.6615 47.6762C48.9612 46.3765 49.9805 44.8658 50.7241 43.1867L41.5806 39.1375C41.315 39.7371 40.9835 40.212 40.5904 40.6051L47.6615 47.6762ZM50.7241 43.1867C51.5327 41.3609 51.9092 39.4248 51.8844 37.4375L41.8852 37.5625C41.8929 38.1793 41.7811 38.6847 41.5806 39.1375L50.7241 43.1867ZM51.8848 37.5C51.8848 35.5629 51.5131 33.6777 50.7481 31.8927L41.5566 35.8319C41.7682 36.3255 41.8848 36.8655 41.8848 37.5H51.8848ZM50.7481 31.8927C50.0183 30.1899 48.9981 28.6604 47.6859 27.3483L40.6149 34.4193C40.9954 34.7999 41.3098 35.256 41.5566 35.8319L50.7481 31.8927ZM47.6859 27.3483C46.3745 26.0369 44.8453 25.0161 43.1482 24.2752L39.1468 33.4397C39.7609 33.7078 40.2335 34.038 40.6149 34.4193L47.6859 27.3483ZM43.1482 24.2752C41.3371 23.4844 39.4202 23.1001 37.4457 23.1254L37.5739 33.1246C38.1384 33.1174 38.6466 33.2213 39.1468 33.4397L43.1482 24.2752ZM37.5098 23.125C35.5658 23.125 33.6698 23.4932 31.8784 24.2721L35.8657 33.4428C36.3205 33.245 36.8495 33.125 37.5098 33.125V23.125ZM31.8784 24.2721C30.2024 25.0008 28.6967 26.0101 27.3919 27.2903L34.3953 34.4284C34.8156 34.016 35.2956 33.6906 35.8657 33.4428L31.8784 24.2721ZM27.3919 27.2903C26.0396 28.6171 24.9969 30.1757 24.2615 31.9162L33.4729 35.8084C33.714 35.2378 34.0222 34.7944 34.3953 34.4284L27.3919 27.2903ZM24.2615 31.9162C23.5098 33.6952 23.1348 35.5702 23.1348 37.5H33.1348C33.1348 36.8908 33.248 36.3406 33.4729 35.8084L24.2615 31.9162ZM23.1348 37.5C23.1348 39.4439 23.503 41.34 24.2818 43.1313L33.4525 39.1441C33.2548 38.6893 33.1348 38.1602 33.1348 37.5H23.1348ZM24.2818 43.1313C25.0105 44.8073 26.0198 46.313 27.3001 47.6179L34.4382 40.6145C34.0257 40.1941 33.7004 39.7142 33.4525 39.1441L24.2818 43.1313ZM27.3001 47.6179C28.615 48.9581 30.1551 49.9999 31.8781 50.7383L35.8173 41.5469C35.2616 41.3087 34.816 40.9996 34.4382 40.6145L27.3001 47.6179ZM31.8781 50.7383C33.671 51.5067 35.5653 51.875 37.5098 51.875V41.875C36.85 41.875 36.303 41.755 35.8173 41.5469L31.8781 50.7383ZM37.5098 42.5H42.1973V32.5H37.5098V42.5ZM37.1973 37.5V40.625H47.1973V37.5H37.1973ZM42.1973 35.625H34.3848V45.625H42.1973V35.625ZM39.3848 40.625V31.25H29.3848V40.625H39.3848ZM34.3848 36.25H37.5098V26.25H34.3848V36.25ZM32.5098 31.25V37.5H42.5098V31.25H32.5098ZM25.668 20.6384C25.0793 21.0589 24.5151 21.5055 23.9771 21.9789L30.5834 29.486C30.8593 29.2432 31.1577 29.0062 31.4804 28.7757L25.668 20.6384ZM23.9771 21.9789C23.4357 22.4553 22.9197 22.961 22.4287 23.4946L29.7881 30.2652C30.0458 29.985 30.311 29.7257 30.5834 29.486L23.9771 21.9789ZM28.4713 22.4734C27.0015 21.6853 25.4554 21.0778 23.8408 20.6529L21.2959 30.3237C22.1553 30.5498 22.9692 30.87 23.7455 31.2863L28.4713 22.4734ZM23.8408 20.6529C22.1811 20.2161 20.4835 20 18.7598 20V30C19.6402 30 20.4817 30.1094 21.2959 30.3237L23.8408 20.6529ZM18.7598 20C16.8863 20 15.0477 20.2456 13.259 20.7473L15.9597 30.3757C16.8403 30.1287 17.7687 30 18.7598 30V20ZM13.259 20.7473C11.538 21.2301 9.90465 21.91 8.37365 22.7941L13.3744 31.4539C14.1546 31.0034 15.0115 30.6417 15.9597 30.3757L13.259 20.7473ZM8.37365 22.7941C6.82381 23.6891 5.41634 24.7812 4.15899 26.0602L11.2902 33.0706C11.9209 32.4291 12.613 31.8936 13.3744 31.4539L8.37365 22.7941ZM4.15899 26.0602C2.93194 27.3084 1.87015 28.6884 0.979778 30.1936L9.58663 35.2849C10.0634 34.4789 10.6293 33.743 11.2902 33.0706L4.15899 26.0602ZM0.979778 30.1936C0.0675353 31.7357 -0.629877 33.3843 -1.11792 35.1243L8.5105 37.8249C8.77115 36.8956 9.13168 36.054 9.58663 35.2849L0.979778 30.1936ZM-1.11792 35.1243C-1.61961 36.9129 -1.86523 38.7515 -1.86523 40.625H8.13477C8.13477 39.6339 8.26349 38.7056 8.5105 37.8249L-1.11792 35.1243ZM3.13477 35.625H0.00976562V45.625H3.13477V35.625ZM5.00977 40.625C5.00977 39.166 5.22128 37.7941 5.63282 36.489L-3.9043 33.4818C-4.63209 35.7899 -4.99023 38.1778 -4.99023 40.625H5.00977ZM5.63282 36.489C6.05054 35.1642 6.64619 33.9588 7.42214 32.8536L-0.761987 27.1073C-2.13447 29.0621 -3.1827 31.1932 -3.9043 33.4818L5.63282 36.489ZM7.42214 32.8536C8.2281 31.7057 9.17963 30.6859 10.2884 29.7865L3.98896 22.0201C2.16803 23.4971 0.580499 25.1953 -0.761987 27.1073L7.42214 32.8536ZM10.2884 29.7865C11.3068 28.9605 12.482 28.2906 13.8477 27.7874L10.3906 18.404C8.04538 19.268 5.90026 20.4698 3.98896 22.0201L10.2884 29.7865ZM14.8584 18.9128C13.6544 18.1243 12.7924 17.1918 12.1801 16.1034L3.46439 21.006C4.90294 23.5634 6.90553 25.6582 9.3799 27.2786L14.8584 18.9128ZM12.1801 16.1034C11.594 15.0613 11.2701 13.8817 11.2596 12.4632L1.2599 12.5368C1.28202 15.5454 1.99978 18.4022 3.46439 21.006L12.1801 16.1034ZM11.2598 12.5C11.2598 11.4215 11.4594 10.4775 11.8295 9.61716L2.64316 5.66605C1.71113 7.83301 1.25977 10.128 1.25977 12.5H11.2598ZM11.8295 9.61716C12.2424 8.65726 12.7849 7.85527 13.4583 7.17212L6.33658 0.152102C4.76388 1.7476 3.53239 3.5986 2.64316 5.66605L11.8295 9.61716ZM13.4583 7.17212C14.1053 6.51578 14.8811 5.98312 15.8347 5.57734L11.9192 -3.62421C9.81288 -2.72791 7.93572 -1.47021 6.33658 0.152102L13.4583 7.17212ZM15.8347 5.57734C16.7222 5.19967 17.6815 5 18.7598 5V-5C16.3876 -5 14.0916 -4.54863 11.9192 -3.62421L15.8347 5.57734ZM18.7598 5C19.8383 5 20.7822 5.19968 21.6426 5.56973L25.5937 -3.6166C23.4268 -4.54863 21.1318 -5 18.7598 -5V5ZM21.6426 5.56973C22.6025 5.98259 23.4045 6.52518 24.0876 7.19857L31.1077 0.0768179C29.5122 -1.49588 27.6612 -2.72738 25.5937 -3.6166L21.6426 5.56973ZM24.0876 7.19857C24.744 7.84553 25.2766 8.62137 25.6824 9.57496L34.884 5.65941C33.9877 3.55311 32.73 1.67595 31.1077 0.0768179L24.0876 7.19857ZM25.6824 9.57496C26.0601 10.4625 26.2598 11.4217 26.2598 12.5H36.2598C36.2598 10.1278 35.8084 7.8318 34.884 5.65941L25.6824 9.57496ZM26.2598 12.5C26.2598 13.1656 26.1797 13.8017 26.023 14.4186L35.7153 16.8802C36.0794 15.4463 36.2598 13.9828 36.2598 12.5H26.2598ZM26.023 14.4186C25.8728 15.01 25.6512 15.5575 25.3561 16.074L34.0385 21.0354C34.785 19.7289 35.3446 18.3397 35.7153 16.8802L26.023 14.4186ZM25.3561 16.074C25.0214 16.6596 24.6234 17.2053 24.156 17.7151L31.5276 24.4724C32.4925 23.4197 33.3315 22.2727 34.0385 21.0354L25.3561 16.074ZM24.156 17.7151C23.7745 18.1313 23.3332 18.4923 22.8146 18.8016L27.9374 27.3898C29.2743 26.5924 30.4768 25.6187 31.5276 24.4724L24.156 17.7151ZM23.519 27.7381C24.3982 28.0898 25.1995 28.4956 25.9305 28.9509L31.218 20.4631C29.9632 19.6815 28.6324 19.0131 27.2329 18.4533L23.519 27.7381ZM4.38477 12.5C4.38477 14.4439 4.753 16.34 5.53184 18.1313L14.7025 14.1441C14.5048 13.6893 14.3848 13.1602 14.3848 12.5H4.38477ZM5.53184 18.1313C6.26053 19.8073 7.26984 21.313 8.5501 22.6179L15.6882 15.6145C15.2757 15.1941 14.9504 14.7142 14.7025 14.1441L5.53184 18.1313ZM8.5501 22.6179C9.86501 23.9581 11.4051 24.9999 13.1281 25.7383L17.0673 16.5469C16.5116 16.3087 16.066 15.9996 15.6882 15.6145L8.5501 22.6179ZM13.1281 25.7383C14.921 26.5067 16.8153 26.875 18.7598 26.875V16.875C18.1 16.875 17.553 16.755 17.0673 16.5469L13.1281 25.7383ZM18.7598 26.875C20.6969 26.875 22.582 26.5033 24.3671 25.7383L20.4279 16.5469C19.9342 16.7584 19.3943 16.875 18.7598 16.875V26.875ZM24.3671 25.7383C26.0698 25.0085 27.5993 23.9883 28.9115 22.6762L21.8404 15.6051C21.4599 15.9856 21.0037 16.3001 20.4279 16.5469L24.3671 25.7383ZM28.9115 22.6762C30.2112 21.3765 31.2305 19.8658 31.9741 18.1867L22.8306 14.1375C22.565 14.7371 22.2335 15.212 21.8404 15.6051L28.9115 22.6762ZM31.9741 18.1867C32.7827 16.3609 33.1592 14.4248 33.1344 12.4375L23.1352 12.5625C23.1429 13.1793 23.0311 13.6847 22.8306 14.1375L31.9741 18.1867ZM33.1348 12.5C33.1348 10.5629 32.7631 8.67772 31.9981 6.89271L22.8066 10.8319C23.0182 11.3255 23.1348 11.8655 23.1348 12.5H33.1348ZM31.9981 6.89271C31.2683 5.18993 30.2481 3.66043 28.9359 2.34826L21.8649 9.41932C22.2454 9.79986 22.5598 10.256 22.8066 10.8319L31.9981 6.89271ZM28.9359 2.34826C27.6245 1.03685 26.0953 0.0161356 24.3982 -0.724845L20.3968 8.43969C21.0109 8.70782 21.4835 9.03802 21.8649 9.41932L28.9359 2.34826ZM24.3982 -0.724845C22.5871 -1.51558 20.6702 -1.8999 18.6957 -1.87459L18.8239 8.12459C19.3884 8.11735 19.8966 8.22131 20.3968 8.43969L24.3982 -0.724845ZM18.7598 -1.875C16.8158 -1.875 14.9198 -1.50677 13.1284 -0.727928L17.1157 8.44277C17.5705 8.24505 18.0995 8.125 18.7598 8.125V-1.875ZM13.1284 -0.727928C11.4524 0.000765493 9.94673 1.01007 8.64185 2.29033L15.6453 9.42842C16.0656 9.01597 16.5456 8.69064 17.1157 8.44277L13.1284 -0.727928ZM8.64185 2.29033C7.28961 3.61706 6.24691 5.17565 5.51146 6.91622L14.7229 10.8084C14.964 10.2378 15.2722 9.7944 15.6453 9.42842L8.64185 2.29033ZM5.51146 6.91622C4.75979 8.69516 4.38477 10.5702 4.38477 12.5H14.3848C14.3848 11.8908 14.498 11.3406 14.7229 10.8084L5.51146 6.91622Z" fill="#F7941D" mask="url(#path-1-inside-1_231_114)"/>
</svg>
