<svg width="50" height="50" viewBox="0 0 50 50" fill="none" xmlns="http://www.w3.org/2000/svg">
<path d="M50 46.5409V38.6792C50 36.478 49.6429 34.2767 48.2143 32.0755C46.7857 29.8742 45 27.9874 42.5 26.7296C40 25.1572 34.6429 24.8428 32.1429 24.8428L26.4286 30.1887L28.5714 34.2767V43.7107L25 47.1698L21.4286 43.7107V34.2767L23.9286 30.1887L17.8571 24.8428C15 24.8428 9.64286 25.1572 7.14286 26.7296C4.64286 27.9874 3.21429 29.8742 1.78571 32.0755C0.357143 34.2767 0 36.1635 0 38.6792V46.5409C0 46.5409 9.28571 50 25 50C40.7143 50 50 46.5409 50 46.5409ZM25 0C18.2143 0 14.2857 5.66038 15.3571 11.9497C16.4286 18.239 20 22.6415 25 22.6415C30 22.6415 33.5714 18.239 34.6429 11.9497C35.7143 5.34591 31.7857 0 25 0Z" fill="#00AEEF"/>
</svg>
