<svg width="54" height="53" viewBox="0 0 54 53" fill="none" xmlns="http://www.w3.org/2000/svg">
<path d="M26.5097 23.5261C30.38 23.5261 33.5175 20.4282 33.5175 16.6067C33.5175 12.7852 30.38 9.68726 26.5097 9.68726C22.6394 9.68726 19.502 12.7852 19.502 16.6067C19.502 20.4282 22.6394 23.5261 26.5097 23.5261Z" fill="#F7941D"/>
<path d="M15.8802 17.2987H16.5869V16.6656C16.5912 14.8247 17.1105 13.0218 18.0862 11.4608C19.0619 9.89969 20.4549 8.64281 22.1077 7.83228C21.6184 6.70539 20.833 5.73206 19.835 5.01568C18.8369 4.2993 17.6635 3.86662 16.4392 3.76359C15.215 3.66056 13.9858 3.89103 12.882 4.43052C11.7783 4.97001 10.8412 5.79838 10.1705 6.82765C9.49969 7.85691 9.12021 9.04863 9.07234 10.2762C9.02446 11.5039 9.30998 12.7215 9.89856 13.7999C10.4871 14.8783 11.3568 15.7771 12.4152 16.4009C13.4736 17.0247 14.6812 17.3502 15.9097 17.3428L15.8802 17.2987ZM36.4619 16.6067V17.2398H37.1686C38.3807 17.2276 39.5672 16.8889 40.6031 16.2593C41.639 15.6296 42.486 14.7324 43.0549 13.662C43.6238 12.5916 43.8937 11.3876 43.8361 10.1767C43.7784 8.96588 43.3954 7.79296 42.7274 6.78143C42.0593 5.7699 41.1309 4.95717 40.0399 4.42879C38.9489 3.90042 37.7356 3.67593 36.5278 3.77897C35.32 3.882 34.1622 4.30874 33.1765 5.01428C32.1907 5.71982 31.4134 6.67805 30.9263 7.78812C32.5797 8.59547 33.9743 9.84917 34.9525 11.4075C35.9307 12.9659 36.4535 14.7668 36.4619 16.6067ZM32.8255 24.2181C35.7527 24.7975 38.583 25.7888 41.2319 27.1626C41.6051 27.3676 41.9431 27.631 42.233 27.9428H50.0652V22.9078C50.0667 22.7147 50.0153 22.5249 49.9167 22.3588C49.8181 22.1928 49.676 22.0568 49.5058 21.9656C45.69 19.9698 41.4453 18.9338 37.1391 18.9476H36.1675C35.6572 21.0215 34.4838 22.8721 32.8255 24.2181ZM9.6233 30.799C9.62061 30.0575 9.82085 29.3294 10.2023 28.6936C10.5838 28.0578 11.132 27.5386 11.7875 27.192C14.4364 25.8183 17.2667 24.8269 20.1939 24.2476C18.5436 22.913 17.3709 21.0791 16.8519 19.0212H15.8802C11.574 19.0075 7.32935 20.0434 3.51358 22.0392C3.34334 22.1304 3.20125 22.2664 3.10266 22.4324C3.00406 22.5985 2.9527 22.7883 2.95413 22.9814V32.389H9.6233V30.799ZM31.6036 39.2937H40.378V41.3548H31.6036V39.2937Z" fill="#F7941D"/>
<path d="M48.3135 31.2994H38.1993V29.8272C38.1993 29.4368 38.0442 29.0623 37.7681 28.7862C37.492 28.5101 37.1175 28.355 36.7271 28.355C36.3366 28.355 35.9621 28.5101 35.6861 28.7862C35.41 29.0623 35.2548 29.4368 35.2548 29.8272V31.2994H32.3987V27.1331C30.4618 26.7263 28.489 26.5142 26.5098 26.5C21.8632 26.4807 17.2829 27.603 13.1715 29.7683C12.9884 29.8633 12.8351 30.0071 12.7286 30.1838C12.622 30.3605 12.5664 30.5631 12.5679 30.7694V39.0286H23.0354V47.9944C23.0354 48.3849 23.1905 48.7594 23.4666 49.0355C23.7427 49.3116 24.1172 49.4667 24.5076 49.4667H48.3135C48.7039 49.4667 49.0784 49.3116 49.3545 49.0355C49.6306 48.7594 49.7857 48.3849 49.7857 47.9944V32.7717C49.7857 32.3812 49.6306 32.0067 49.3545 31.7306C49.0784 31.4546 48.7039 31.2994 48.3135 31.2994ZM46.8412 46.5517H25.9798V34.2439H35.2548V35.5836C35.2548 35.9741 35.41 36.3485 35.6861 36.6246C35.9621 36.9007 36.3366 37.0558 36.7271 37.0558C37.1175 37.0558 37.492 36.9007 37.7681 36.6246C38.0442 36.3485 38.1993 35.9741 38.1993 35.5836V34.2439H46.8412V46.5517Z" fill="#F7941D"/>
</svg>
