<svg width="81" height="80" viewBox="0 0 81 80" fill="none" xmlns="http://www.w3.org/2000/svg">
<path d="M4.56527 54.5405H23.1368V79.9998H4.56519L4.56527 54.5405ZM17.9102 59.8153H9.79179V74.7252H17.9102V59.8153ZM57.9101 27.6396H76.4817V79.9998H57.9101V27.6396ZM71.2552 32.9143H63.1367V74.7251H71.2552V32.9143ZM31.2552 41.0724H49.8267V79.9998H31.2552V41.0724ZM44.6002 46.3474H36.4815V74.7254H44.6002V46.3474ZM80.5234 80H0.523438V74.7253H80.5234V80ZM42.196 29.5386H30.5233V24.2638H42.1958C43.5037 24.2617 44.5633 23.1924 44.5652 21.8727V21.855V21.8374C44.5652 20.5168 43.5045 19.4463 42.196 19.4463H38.7028C34.4981 19.4463 31.0895 16.0063 31.0895 11.7627C31.0895 7.5224 34.4932 4.08428 38.6935 4.07928H50.3841V9.35396H38.7219C37.4061 9.37177 36.3459 10.4504 36.3421 11.78V11.7804C36.3441 13.1003 37.4037 14.1696 38.7113 14.1716H42.1957C46.4004 14.1716 49.8091 17.6116 49.8091 21.8552C49.8091 26.0988 46.4004 29.5386 42.1957 29.5386H42.196ZM43.1367 6.71678H37.9102V0H43.1367V6.71678ZM43.1367 33.6529H37.9102V26.9013H43.1367V33.6529Z" fill="#F7941D"/>
</svg>
