<svg width="41" height="40" viewBox="0 0 41 40" fill="none" xmlns="http://www.w3.org/2000/svg">
<path d="M13.4854 27.5C13.336 27.5 13.1867 27.5273 13.0442 27.5852C12.2342 27.9141 11.3823 28.125 10.4854 28.125C9.58855 28.125 8.73668 27.9141 7.92606 27.5852C7.78356 27.5273 7.63481 27.5 7.48544 27.5C3.60669 27.5 0.464828 31.4437 0.485453 36.2984C0.494203 38.35 1.84357 40 3.48544 40H17.4854C19.1273 40 20.4767 38.35 20.4854 36.2984C20.506 31.4437 17.3642 27.5 13.4854 27.5ZM10.4854 25C13.7992 25 16.4854 21.6422 16.4854 17.5C16.4854 13.3578 13.7992 10 10.4854 10C7.17169 10 4.48544 13.3578 4.48544 17.5C4.48544 21.6422 7.17169 25 10.4854 25ZM37.4854 0H13.4854C11.831 0 10.4854 1.73828 10.4854 3.87422V7.5C11.9492 7.5 13.3042 8.02969 14.4854 8.89063V5H36.4854V27.5H32.4854V22.5H24.4854V27.5H19.7204C20.9142 28.8039 21.7904 30.5258 22.201 32.5H37.4854C39.1397 32.5 40.4854 30.7617 40.4854 28.6258V3.87422C40.4854 1.73828 39.1397 0 37.4854 0Z" fill="#00AEEF"/>
</svg>
