<svg width="81" height="81" viewBox="0 0 81 81" fill="none" xmlns="http://www.w3.org/2000/svg">
<path d="M35.6895 67.8572H38.9087V74.1458H35.6895V67.8572Z" fill="#00AEEF"/>
<path d="M36.5189 68.7346C29.873 68.7346 23.133 67.5722 16.8072 65.1153C15.4767 64.5991 14.18 64.031 12.9541 63.4247L14.6811 61.3141C15.8145 61.8735 17.0131 62.3991 18.2462 62.8772C38.2725 70.6521 62.7986 64.4566 72.9164 49.065C77.791 41.642 78.6324 33.2002 75.2861 25.2954C71.9117 17.3193 64.6874 10.8438 54.9485 7.06132C53.7829 6.6057 52.5538 6.18571 51.188 5.77696L52.3439 3.44263C53.8103 3.88074 55.1351 4.33324 56.3924 4.82573C66.9011 8.90691 74.6997 15.8999 78.3452 24.5141C81.9618 33.0577 81.052 42.1807 75.784 50.2031C68.0626 61.9479 52.5699 68.734 36.5189 68.7346Z" fill="#00AEEF"/>
<path d="M68.7634 80.3889H5.77344L5.8402 79.0877C5.99706 76.0371 9.17926 72.6384 13.4965 72.6384H61.0372C65.3552 72.6384 68.5398 76.0371 68.6959 79.0877L68.7634 80.3889ZM9.40932 77.8871H65.1276C64.4406 76.4484 62.8407 75.1396 61.0372 75.1396H13.4965C11.6946 75.1403 10.0955 76.4484 9.40932 77.8871Z" fill="#00AEEF"/>
<path d="M17.2041 56.2659L20.0666 57.4102L13.3806 67.5069L10.5181 66.3626L17.2041 56.2659Z" fill="#00AEEF"/>
<path d="M54.1943 0.388916L57.0576 1.53326L50.9481 10.7613L48.0848 9.61699L54.1943 0.388916Z" fill="#00AEEF"/>
<path d="M37.203 63.123C32.268 63.123 27.2583 62.3542 22.4592 60.7299C13.4483 57.6756 6.53615 52.0906 2.99358 45.0014C-0.512788 37.984 -0.279513 30.3416 3.65078 23.4805L6.59246 24.498C3.01369 30.7448 2.80133 37.7053 5.99479 44.0958C9.22365 50.5582 15.5285 55.6512 23.7463 58.4362C40.6587 64.1611 60.4791 58.2468 67.927 45.2501C71.5066 39.0015 71.7189 32.0391 68.5239 25.6461C65.2934 19.1843 58.991 14.0938 50.7748 11.3101C46.3305 9.80449 41.624 9.0695 36.8032 9.127L36.7542 6.62517C42.0334 6.55829 47.1928 7.36766 52.0611 9.017C61.0695 12.0688 67.9817 17.6531 71.5243 24.7405C75.0323 31.7597 74.7998 39.4059 70.8687 46.2676C64.8188 56.8262 51.325 63.1223 37.203 63.123Z" fill="#00AEEF"/>
<path d="M31.2258 53.0501L31.2048 44.2758L32.9673 38.7734L29.6403 37.5191L29.082 33.4341L35.2872 29.4392L40.0613 31.5486L41.7577 30.2511L35.7795 27.7961L36.5565 25.4005L41.7658 21.8856L48.801 20.0781L52.8705 22.9999L60.5943 23.6656C61.3287 23.6237 64.667 23.4318 68.3447 23.2381L68.5619 25.7343C64.4088 25.9524 60.6876 26.168 60.686 26.1686L60.5364 26.1774L51.4636 25.3955L48.0103 22.9168L43.3899 24.1037L39.7162 26.583L47.1512 29.6373L40.5865 34.6579L35.6306 32.4679L32.4669 34.5041L32.6544 35.8741L36.7238 37.4085L34.4265 44.5802L34.4329 47.2745L44.948 39.5953L47.8559 37.3997L53.7891 34.9629L54.5509 41.0471L58.7619 44.3115L71.2132 37.0491L73.147 39.0497L58.4643 47.6133L51.4588 42.1834L51.0493 38.9178L49.7695 39.444L47.1721 41.404L31.2258 53.0501Z" fill="#00AEEF"/>
<path d="M11.2911 48.8132L9.44824 43.5139L12.5106 38.284L12.1478 33.7172L15.3614 33.5635L15.7419 38.354C15.7587 38.6471 15.6872 38.9171 15.5359 39.1578L12.8589 43.7302L13.023 44.2002L22.0459 37.8097L19.3383 33.161L22.272 32.1304L25.9424 38.4346L11.2911 48.8132Z" fill="#00AEEF"/>
<path d="M35.57 21.3025L34.7334 18.8869L40.3296 17.7175L44.2406 13.6157L46.8283 15.1051L42.2497 19.9069L35.57 21.3025Z" fill="#00AEEF"/>
<path d="M18.2337 30.3478L17.196 29.6672C15.646 28.651 2.05566 19.5524 2.05566 12.9719C2.05566 6.10761 9.31294 0.522705 18.2337 0.522705C27.1537 0.522705 34.4118 6.10761 34.4118 12.9719C34.4118 19.5524 20.8215 28.651 19.2722 29.6672L18.2337 30.3478ZM18.2337 3.02454C11.0883 3.02454 5.27487 7.48696 5.27487 12.9719C5.27487 17.2068 13.8361 24.0086 18.2329 27.0535C22.6306 24.0067 31.191 17.2018 31.191 12.9719C31.1918 7.48634 25.3784 3.02454 18.2337 3.02454Z" fill="#00AEEF"/>
<path d="M18.2325 17.9894C14.6425 17.9894 11.7217 15.7382 11.7217 12.972C11.7217 10.2058 14.6425 7.95459 18.2325 7.95459C21.8225 7.95459 24.7433 10.2058 24.7433 12.972C24.7433 15.7382 21.8225 17.9894 18.2325 17.9894ZM18.2325 10.4558C16.4178 10.4558 14.9417 11.5845 14.9417 12.9714C14.9417 14.3582 16.4178 15.4876 18.2325 15.4876C20.0472 15.4876 21.5241 14.3582 21.5241 12.9714C21.5241 11.5845 20.0472 10.4558 18.2325 10.4558Z" fill="#00AEEF"/>
</svg>
