<svg width="93" height="92" viewBox="0 0 93 92" fill="none" xmlns="http://www.w3.org/2000/svg">
<path d="M61.0684 59.0277C61.0684 54.8198 49.672 51.4086 35.6139 51.4086M61.0684 59.0277C61.0684 63.2356 49.672 66.6467 35.6139 66.6467C21.5557 66.6467 10.1593 63.2356 10.1593 59.0277M61.0684 59.0277V77.8344C61.0684 82.1753 49.672 85.6943 35.6139 85.6943C21.5557 85.6943 10.1593 82.1753 10.1593 77.8344V59.0277M61.0684 59.0277C74.9721 59.0277 86.523 55.2672 86.523 51.4086V13.3134M35.6139 51.4086C21.5557 51.4086 10.1593 54.8198 10.1593 59.0277M35.6139 51.4086C19.5474 51.4086 6.52295 47.6482 6.52295 43.7896V24.742M35.6139 17.1229C19.5474 17.1229 6.52295 20.5341 6.52295 24.742M6.52295 24.742C6.52295 28.9498 19.5474 32.361 35.6139 32.361C35.6139 36.2196 47.4445 39.9801 61.3481 39.9801C75.2518 39.9801 86.523 36.2196 86.523 32.361M86.523 13.3134C86.523 9.1055 75.2518 5.69434 61.3481 5.69434C47.4445 5.69434 36.1733 9.1055 36.1733 13.3134M86.523 13.3134C86.523 17.5213 75.2518 20.9324 61.3481 20.9324C47.4445 20.9324 36.1733 17.5213 36.1733 13.3134M36.1733 13.3134V52.041" stroke="#00AEEF" stroke-width="11.3018"/>
</svg>
